{"context": "\n\n\u306f\u3058\u3081\u306b\nCPU\u306e\u30e1\u30cb\u30fc\u30b3\u30a2\u5316\u304c\u6b62\u307e\u3089\u306a\u3044\u3002CPU\u30af\u30ed\u30c3\u30af\u3092\u4e0a\u3052\u3066\u306e\u6027\u80fd\u5411\u4e0a\u304c\u96e3\u3057\u304f\u306a\u3063\u305f\u306e\u3067\u3001\u5404CPU\u30e1\u30fc\u30ab\u306f\u3001\u30e1\u30cb\u30fc\u30b3\u30a2\u5316\u3067\u6027\u80fd\u3092\u4e0a\u3052\u308b\u65b9\u5411\u3092\u6a21\u7d22\u3057\u3066\u3044\u308b\u3002\nARM\u306f\u305d\u306e\u3088\u3046\u306a\u7af6\u4e89\u306e\u30d5\u30ed\u30f3\u30c8\u30e9\u30f3\u30ca\u30fc\u3092\u52d9\u3081\u3066\u3044\u308b\u3002\n\u4f8b\u3048\u3070\u300164core\u306eserver\u7528ARM\u30d7\u30ed\u30bb\u30c3\u30b5\u30fc\u306a\u3069\u304c\u51fa\u3066\u304d\u3066\u3044\u308b\u3002\nhttps://www.nextplatform.com/2016/09/01/details-emerge-chinas-64-core-arm-chip/\n\u305d\u306e\u3088\u3046\u306a\u4e2d\u3067\u3001Packet\u3068\u3044\u3046\u4f1a\u793e\u304c\u3001\u6771\u4eac\u30ea\u30fc\u30b8\u30e7\u30f3\u3067\u3001ARM 96\u30b3\u30a2\u306e\u30af\u30e9\u30a6\u30c9\u30b5\u30fc\u30d3\u30b9\u3092\u59cb\u3081\u305f\u306e\u3067\u3001\u5b9f\u969b\u30e1\u30cb\u30fc\u30b3\u30a2\u304c\u3069\u306e\u3088\u3046\u306a\u6027\u80fd\u304c\u51fa\u308b\u304b\u8a66\u3057\u3066\u307f\u305f\u3002\u4eca\u307e\u3067\u3082\u3001\u6771\u4eac\u30ea\u30fc\u30b8\u30e7\u30f3\u4ee5\u5916\u3067ARM core\u3092\u5229\u7528\u3057\u305f\u30af\u30e9\u30a6\u30c9\u30b5\u30fc\u30d3\u30b9\u306f\u3042\u3063\u305f\u304c\u3001\u30e8\u30fc\u30ed\u30c3\u30d1\u306a\u3069\u3067\u3001\u30ec\u30a4\u30c6\u30f3\u30b7\u304c\u5927\u304d\u304f\u3066\u3001\u4f7f\u3044\u306b\u304f\u304b\u3063\u305f\u3002\n\n\u4f7f\u7528\u30de\u30b7\u30f3\n\u4eca\u56de\u4f7f\u7528\u3057\u305f\u306e\u306f\u3001Packet\u3068\u3044\u3046\u4f1a\u793e\u306eARM\u30b5\u30fc\u30d0\u30af\u30e9\u30a6\u30c9\u30b5\u30fc\u30d3\u30b9\u3002\u30d9\u30a2\u30e1\u30bf\u30eb\u3067\u300196\u30b3\u30a2\u306e\u30de\u30b7\u30f3\u3092\u4e00\u6642\u95930.5\u30c9\u30eb\u3067\u5229\u7528\u3067\u304d\u308b\u3002\nhttps://www.packet.net/bare-metal/\n\u30b5\u30fc\u30d0\u306e\u6027\u80fd\u306f\u3053\u3093\u306a\u611f\u3058\u3060\n\nARMv8 96core 128GB RAM 340GB SSD 20Gbps\n\u3068\u3044\u3046\u6027\u80fd\u3060\u3002\n\n\u30de\u30b7\u30f3\u3092\u30c7\u30d7\u30ed\u30a4\u3059\u308b\n\u30de\u30b7\u30f3\u3092\u30c7\u30d7\u30ed\u30a4\u3059\u308b\u3002server type\u306fType2A\u3092\u9078\u3076\u3002deploy\u3057\u3066\u66ab\u304f\u5f85\u3064\u3068\u3001\u4f7f\u3048\u308b\u3088\u3046\u306b\u306a\u308b\u3002root\u3067\u306e\u30ed\u30b0\u30a4\u30f3\u306b\u306fssh-key\u304c\u5fc5\u8981\u3067\u3001\u516c\u958b\u9375\u3092\u30bb\u30c3\u30c8\u3059\u308b\u3002\n\n\nFFMPEG\u3067\u6027\u80fd\u3092\u8a66\u3057\u3066\u307f\u308b\u3002\n\u30e1\u30cb\u30fc\u30b3\u30a2\u306e\u6027\u80fd\u3092\u6e2c\u308b\u306e\u306b\u3001\u91cd\u3081\u306e\u51e6\u7406\u304c\u826f\u3044\u3060\u308d\u3046\u3068\u601d\u3063\u3066\u3001ffmpeg\u3067\u6027\u80fd\u3092\u6e2c\u3063\u3066\u307f\u308b\u3002\n\n96\u30b3\u30a2\u3042\u308b\u306e\u3067\u3001threads\u309296\u306b\u3057\u3066\u307f\u305f\u3002\nffmpeg -i input.wmv -threads 96 -movflags faststart -vcodec libx264 -strict -2  output.mp4\n\n\u3057\u304b\u3057\u3001\u3042\u307e\u308a\u52b9\u7387\u7684\u306b\u51e6\u7406\u3057\u3066\u304f\u308c\u3066\u3044\u306a\u3044\u3088\u3046\u3060\u3002fps\u306f81\u5f8c\u534a\u300229\u30d5\u30ec\u30fc\u30e0\u304c\u4e00\u79d2\u306a\u306e\u3067\u3001\u5927\u4f533\u500d\u901f\u7a0b\u5ea6\u306e\u901f\u5ea6\u3060\u3002\n\nUnixBench\u3092\u52d5\u304b\u3057\u3066\u307f\u308b\n\u3056\u3063\u304f\u308a\u6027\u80fd\u3092\u898b\u308b\u305f\u3081\u3001UnixBench\u3092\u52d5\u304b\u3057\u3066\u307f\u308b\u3002\nUnixBench\u306b\u95a2\u3057\u3066\u306f\u3053\u3061\u3089\u304c\u8a73\u3057\u3044\u3002\nhttp://qiita.com/smile-0yen/items/991ad53b8411364d9729\n   BYTE UNIX Benchmarks (Version 5.1.3)\n\n   System: test-armcpu.local.lan: GNU/Linux\n   OS: GNU/Linux -- 4.4.0-38-generic -- #57-Ubuntu SMP Wed Sep 7 10:19:14 UTC 2016\n   Machine: aarch64 (aarch64)\n   Language: en_US.utf8 (charmap=\"UTF-8\", collate=\"UTF-8\")\n   05:03:55 up 18:53,  1 user,  load average: 0.29, 0.08, 0.02; runlevel 2016-12-29\n\n------------------------------------------------------------------------\nBenchmark Run: Fri Dec 30 2016 05:03:55 - 05:32:01\n96 CPUs in system; running 1 parallel copy of tests\n\nDhrystone 2 using register variables        8682902.1 lps   (10.0 s, 7 samples)\nDouble-Precision Whetstone                     1781.5 MWIPS (10.1 s, 7 samples)\nExecl Throughput                               1332.9 lps   (29.9 s, 2 samples)\nFile Copy 1024 bufsize 2000 maxblocks        241588.1 KBps  (30.0 s, 2 samples)\nFile Copy 256 bufsize 500 maxblocks           64547.6 KBps  (30.0 s, 2 samples)\nFile Copy 4096 bufsize 8000 maxblocks        624856.5 KBps  (30.0 s, 2 samples)\nPipe Throughput                              465766.8 lps   (10.0 s, 7 samples)\nPipe-based Context Switching                  89913.6 lps   (10.0 s, 7 samples)\nProcess Creation                               2217.6 lps   (30.0 s, 2 samples)\nShell Scripts (1 concurrent)                   3348.3 lpm   (60.0 s, 2 samples)\nShell Scripts (8 concurrent)                   1426.2 lpm   (60.0 s, 2 samples)\nSystem Call Overhead                        1042283.3 lps   (10.0 s, 7 samples)\n\nSystem Benchmarks Index Values               BASELINE       RESULT    INDEX\nDhrystone 2 using register variables         116700.0    8682902.1    744.0\nDouble-Precision Whetstone                       55.0       1781.5    323.9\nExecl Throughput                                 43.0       1332.9    310.0\nFile Copy 1024 bufsize 2000 maxblocks          3960.0     241588.1    610.1\nFile Copy 256 bufsize 500 maxblocks            1655.0      64547.6    390.0\nFile Copy 4096 bufsize 8000 maxblocks          5800.0     624856.5   1077.3\nPipe Throughput                               12440.0     465766.8    374.4\nPipe-based Context Switching                   4000.0      89913.6    224.8\nProcess Creation                                126.0       2217.6    176.0\nShell Scripts (1 concurrent)                     42.4       3348.3    789.7\nShell Scripts (8 concurrent)                      6.0       1426.2   2377.0\nSystem Call Overhead                          15000.0    1042283.3    694.9\n                                                                   ========\nSystem Benchmarks Index Score                                         517.6\n\n------------------------------------------------------------------------\nBenchmark Run: Fri Dec 30 2016 05:32:01 - 06:03:57\n96 CPUs in system; running 96 parallel copies of tests\n\nDhrystone 2 using register variables      827115140.6 lps   (10.0 s, 7 samples)\nDouble-Precision Whetstone                   170085.3 MWIPS (10.2 s, 7 samples)\nExecl Throughput                               9013.4 lps   (29.7 s, 2 samples)\nFile Copy 1024 bufsize 2000 maxblocks        394697.2 KBps  (30.0 s, 2 samples)\nFile Copy 256 bufsize 500 maxblocks           99702.0 KBps  (30.1 s, 2 samples)\nFile Copy 4096 bufsize 8000 maxblocks       1377211.3 KBps  (30.0 s, 2 samples)\nPipe Throughput                            41446654.1 lps   (10.0 s, 7 samples)\nPipe-based Context Switching                1015846.3 lps   (10.0 s, 7 samples)\nProcess Creation                              13796.1 lps   (30.0 s, 2 samples)\nShell Scripts (1 concurrent)                  30894.5 lpm   (60.1 s, 2 samples)\nShell Scripts (8 concurrent)                   4049.4 lpm   (60.5 s, 2 samples)\nSystem Call Overhead                         822014.2 lps   (10.1 s, 7 samples)\n\nSystem Benchmarks Index Values               BASELINE       RESULT    INDEX\nDhrystone 2 using register variables         116700.0  827115140.6  70875.3\nDouble-Precision Whetstone                       55.0     170085.3  30924.6\nExecl Throughput                                 43.0       9013.4   2096.1\nFile Copy 1024 bufsize 2000 maxblocks          3960.0     394697.2    996.7\nFile Copy 256 bufsize 500 maxblocks            1655.0      99702.0    602.4\nFile Copy 4096 bufsize 8000 maxblocks          5800.0    1377211.3   2374.5\nPipe Throughput                               12440.0   41446654.1  33317.2\nPipe-based Context Switching                   4000.0    1015846.3   2539.6\nProcess Creation                                126.0      13796.1   1094.9\nShell Scripts (1 concurrent)                     42.4      30894.5   7286.4\nShell Scripts (8 concurrent)                      6.0       4049.4   6749.1\nSystem Call Overhead                          15000.0     822014.2    548.0\n                                                                   ========\nSystem Benchmarks Index Score                                        3991.5\n\n\nEC2\u3068\u6bd4\u8f03\u3057\u3066\u307f\u308b\u3002\narm\u30b5\u30fc\u30d0\u306e\u5b9f\u529b\u3092\u56f3\u308b\u305f\u3081\u306bEC2\u306e\u5404\u30de\u30b7\u30f3\u3068\u6bd4\u8f03\u3057\u305f\u3002\nEC2\u306farm\u30b5\u30fc\u30d0\u304c\u306a\u3044\u306e\u3067\u3001\u30b3\u30a2\u6570\u306e\u591a\u3044xeon\u30b5\u30fc\u30d0\u3084\u3001\u4fa1\u683c\u5e2f\u306e\u8fd1\u3044\u30b5\u30fc\u30d0\u3068\u6bd4\u8f03\u3057\u3066\u307f\u308b\u3002\n\n64core xeon(x86_64)\u3068\u6bd4\u8f03\u3057\u305f\u3002\nEC2\u306e\u30de\u30b7\u30f3\u3068\u6bd4\u8f03\u3057\u305f\u3002\n\u6bd4\u8f03\u30de\u30b7\u30f3\u306f\u3001\nm4.16xlarge\n\u30b9\u30da\u30c3\u30af\u306f\n\n\n\n\u30de\u30b7\u30f3\u540d\ncpu core\nECU\nmemory(GBi)\nHDD\n\u4fa1\u683c\n\n\n\n\nm4.16xlarge\n64\n188\n256\n8GB/SDD\n$4.45 /1 \u6642\u9593\n\n\n\n\u3068\u306a\u308b\u3002ec2\u3067\u306f\u3001\u6700\u3082CPU\u304c\u591a\u3044\u30de\u30b7\u30f3\u3092\u9078\u3093\u3060\u3002\n\nffmpeg\u3067\u6bd4\u8f03\u3059\u308b\n\u5927\u4f5310\u500d\u901f\u7a0b\u5ea6\u3067\u3001\u30a8\u30f3\u30b3\u30fc\u30c9\u3057\u3066\u3044\u308b\u3002\nffmpeg\u306fCPU\u304c\u30dc\u30c8\u30eb\u30cd\u30c3\u30af\u306b\u306a\u3063\u3066\u3044\u308b\u308f\u3051\u3067\u306f\u306a\u3055\u305d\u3046\u3060\u3002\n\u5c11\u306a\u304f\u3068\u3082\u3001\u30de\u30eb\u30c1\u30b3\u30a2\u3092\u5168\u3066\u4f7f\u3044\u5207\u308b\u3088\u3046\u306a\u3053\u3068\u306f\u306a\u304b\u3063\u305f\u3002\nspframe=174885 fps=308 q=29.0 size=  590515kB time=01:37:14.57 bitrate= 829.1kbits/s dup=418 drop=0 speed=10.3x\n\n\nunix bench\u3067\u6e2c\u3063\u305f\n=======================================================================\n   BYTE UNIX Benchmarks (Version 5.1.3)\n\n   System: ip-10-0-0-100: GNU/Linux\n   OS: GNU/Linux -- 4.4.0-53-generic -- #74-Ubuntu SMP Fri Dec 2 15:59:10 UTC 2016\n   Machine: x86_64 (x86_64)\n   Language: en_US.utf8 (charmap=\"UTF-8\", collate=\"UTF-8\")\n   CPU 0: Intel(R) Xeon(R) CPU E5-2686 v4 @ 2.30GHz (4600.1 bogomips)\n          Hyper-Threading, x86-64, MMX, Physical Address Ext, SYSENTER/SYSEXIT, SYSCALL/SYSRET\n   CPU 1: Intel(R) Xeon(R) CPU E5-2686 v4 @ 2.30GHz (4600.1 bogomips)\n          Hyper-Threading, x86-64, MMX, Physical Address Ext, SYSENTER/SYSEXIT, SYSCALL/SYSRET\n   CPU 2: Intel(R) Xeon(R) CPU E5-2686 v4 @ 2.30GHz (4600.1 bogomips)\n          Hyper-Threading, x86-64, MMX, Physical Address Ext, SYSENTER/SYSEXIT, SYSCALL/SYSRET\n   CPU 3: Intel(R) Xeon(R) CPU E5-2686 v4 @ 2.30GHz (4600.1 bogomips)\n          Hyper-Threading, x86-64, MMX, Physical Address Ext, SYSENTER/SYSEXIT, SYSCALL/SYSRET\n   CPU 4: Intel(R) Xeon(R) CPU E5-2686 v4 @ 2.30GHz (4600.1 bogomips)\n          Hyper-Threading, x86-64, MMX, Physical Address Ext, SYSENTER/SYSEXIT, SYSCALL/SYSRET\n   CPU 5: Intel(R) Xeon(R) CPU E5-2686 v4 @ 2.30GHz (4600.1 bogomips)\n          Hyper-Threading, x86-64, MMX, Physical Address Ext, SYSENTER/SYSEXIT, SYSCALL/SYSRET\n   CPU 6: Intel(R) Xeon(R) CPU E5-2686 v4 @ 2.30GHz (4600.1 bogomips)\n          Hyper-Threading, x86-64, MMX, Physical Address Ext, SYSENTER/SYSEXIT, SYSCALL/SYSRET\n   CPU 7: Intel(R) Xeon(R) CPU E5-2686 v4 @ 2.30GHz (4600.1 bogomips)\n          Hyper-Threading, x86-64, MMX, Physical Address Ext, SYSENTER/SYSEXIT, SYSCALL/SYSRET\n   CPU 8: Intel(R) Xeon(R) CPU E5-2686 v4 @ 2.30GHz (4600.1 bogomips)\n          Hyper-Threading, x86-64, MMX, Physical Address Ext, SYSENTER/SYSEXIT, SYSCALL/SYSRET\n   CPU 9: Intel(R) Xeon(R) CPU E5-2686 v4 @ 2.30GHz (4600.1 bogomips)\n          Hyper-Threading, x86-64, MMX, Physical Address Ext, SYSENTER/SYSEXIT, SYSCALL/SYSRET\n   CPU 10: Intel(R) Xeon(R) CPU E5-2686 v4 @ 2.30GHz (4600.1 bogomips)\n          Hyper-Threading, x86-64, MMX, Physical Address Ext, SYSENTER/SYSEXIT, SYSCALL/SYSRET\n   CPU 11: Intel(R) Xeon(R) CPU E5-2686 v4 @ 2.30GHz (4600.1 bogomips)\n          Hyper-Threading, x86-64, MMX, Physical Address Ext, SYSENTER/SYSEXIT, SYSCALL/SYSRET\n..\u4e2d\u7565\n\n------------------------------------------------------------------------\nBenchmark Run: Fri Dec 30 2016 06:47:26 - 07:15:32\n64 CPUs in system; running 1 parallel copy of tests\n\nDhrystone 2 using register variables       31339027.4 lps   (10.0 s, 7 samples)\nDouble-Precision Whetstone                     3854.6 MWIPS (9.8 s, 7 samples)\nExecl Throughput                               2149.6 lps   (29.7 s, 2 samples)\nFile Copy 1024 bufsize 2000 maxblocks       1070566.1 KBps  (30.0 s, 2 samples)\nFile Copy 256 bufsize 500 maxblocks          285762.6 KBps  (30.0 s, 2 samples)\nFile Copy 4096 bufsize 8000 maxblocks       3329653.8 KBps  (30.0 s, 2 samples)\nPipe Throughput                             2092745.4 lps   (10.0 s, 7 samples)\nPipe-based Context Switching                  55210.1 lps   (10.0 s, 7 samples)\nProcess Creation                               3169.1 lps   (30.0 s, 2 samples)\nShell Scripts (1 concurrent)                   8362.3 lpm   (60.0 s, 2 samples)\nShell Scripts (8 concurrent)                   5731.3 lpm   (60.0 s, 2 samples)\nSystem Call Overhead                        3320152.8 lps   (10.0 s, 7 samples)\n\nSystem Benchmarks Index Values               BASELINE       RESULT    INDEX\nDhrystone 2 using register variables         116700.0   31339027.4   2685.4\nDouble-Precision Whetstone                       55.0       3854.6    700.8\nExecl Throughput                                 43.0       2149.6    499.9\nFile Copy 1024 bufsize 2000 maxblocks          3960.0    1070566.1   2703.4\nFile Copy 256 bufsize 500 maxblocks            1655.0     285762.6   1726.7\nFile Copy 4096 bufsize 8000 maxblocks          5800.0    3329653.8   5740.8\nPipe Throughput                               12440.0    2092745.4   1682.3\nPipe-based Context Switching                   4000.0      55210.1    138.0\nProcess Creation                                126.0       3169.1    251.5\nShell Scripts (1 concurrent)                     42.4       8362.3   1972.2\nShell Scripts (8 concurrent)                      6.0       5731.3   9552.2\nSystem Call Overhead                          15000.0    3320152.8   2213.4\n                                                                   ========\nSystem Benchmarks Index Score                                        1409.3\n\n------------------------------------------------------------------------\nBenchmark Run: Fri Dec 30 2016 07:15:32 - 07:44:01\n64 CPUs in system; running 64 parallel copies of tests\n\nDhrystone 2 using register variables     1221091536.5 lps   (10.0 s, 7 samples)\nDouble-Precision Whetstone                   216598.1 MWIPS (10.0 s, 7 samples)\nExecl Throughput                              35869.1 lps   (29.9 s, 2 samples)\nFile Copy 1024 bufsize 2000 maxblocks        573922.7 KBps  (30.0 s, 2 samples)\nFile Copy 256 bufsize 500 maxblocks          136692.2 KBps  (30.0 s, 2 samples)\nFile Copy 4096 bufsize 8000 maxblocks       1854326.6 KBps  (30.0 s, 2 samples)\nPipe Throughput                            75118109.6 lps   (10.0 s, 7 samples)\nPipe-based Context Switching                5722744.1 lps   (10.0 s, 7 samples)\nProcess Creation                              45984.7 lps   (30.0 s, 2 samples)\nShell Scripts (1 concurrent)                 143643.6 lpm   (60.0 s, 2 samples)\nShell Scripts (8 concurrent)                  19149.4 lpm   (60.1 s, 2 samples)\nSystem Call Overhead                        3478749.7 lps   (10.0 s, 7 samples)\n\nSystem Benchmarks Index Values               BASELINE       RESULT    INDEX\nDhrystone 2 using register variables         116700.0 1221091536.5 104635.1\nDouble-Precision Whetstone                       55.0     216598.1  39381.5\nExecl Throughput                                 43.0      35869.1   8341.7\nFile Copy 1024 bufsize 2000 maxblocks          3960.0     573922.7   1449.3\nFile Copy 256 bufsize 500 maxblocks            1655.0     136692.2    825.9\nFile Copy 4096 bufsize 8000 maxblocks          5800.0    1854326.6   3197.1\nPipe Throughput                               12440.0   75118109.6  60384.3\nPipe-based Context Switching                   4000.0    5722744.1  14306.9\nProcess Creation                                126.0      45984.7   3649.6\nShell Scripts (1 concurrent)                     42.4     143643.6  33878.2\nShell Scripts (8 concurrent)                      6.0      19149.4  31915.6\nSystem Call Overhead                          15000.0    3478749.7   2319.2\n                                                                   ========\nSystem Benchmarks Index Score                                       10032.8\n\n\n\u540c\u3058\u4fa1\u683c\u5e2f\u306eEC2\u306e\u30de\u30b7\u30f3\u3068\u6bd4\u8f03\u3057\u305f\u3002\n\u6bd4\u8f03\u30de\u30b7\u30f3\u306f\u3001\nc4.2xlarge\n\u30b9\u30da\u30c3\u30af\u306f\n\n\n\n\u30de\u30b7\u30f3\u540d\ncpu core\nECU\nmemory(GBi)\nHDD\n\u4fa1\u683c\n\n\n\n\nc4.2xlarge\n8\n31\n15\n20GB/SDD\n$0.504 /1 \u6642\u9593\n\n\n\n\u3068\u306a\u308b\u3002ec2\u3067\u306f\u3001packet\u306etype2a\u3068\u540c\u3058\u4fa1\u683c\u5e2f\u3067\u6bd4\u8f03\u3057\u3066\u307f\u305f\u3002\n\nffmpeg\u3067\u6bd4\u8f03\u3057\u305f\n\u5927\u4f538\u500d\u901f\u304f\u3089\u3044\u306e\u901f\u5ea6\u304c\u51fa\u3066\u3044\u308b\u3002\n\u4e0a\u306b\u66f8\u3044\u305f\u3088\u3046\u306bFFMPEG\u306fCPU\u304c\u30dc\u30c8\u30eb\u30cd\u30c3\u30af\u306b\u306f\u306a\u3063\u3066\u3044\u306a\u3044\u3002\nframe=17502 fps=251 q=29.0 size=   49055kB time=00:09:43.47 bitrate= 688.7kbits/s dup=7 drop=0 speed=8.37x\n\n\nunixbench\u3067\u6bd4\u8f03\u3057\u305f\u3002\n========================================================================        \n   BYTE UNIX Benchmarks (Version 5.1.3)                                         \n\n   System: ip-10-0-0-199: GNU/Linux                                             \n   OS: GNU/Linux -- 4.4.0-53-generic -- #74-Ubuntu SMP Fri Dec 2 15:59:10 UTC 2016                                                                              \n   Machine: x86_64 (x86_64)                                                     \n   Language: en_US.utf8 (charmap=\"UTF-8\", collate=\"UTF-8\")                      \n   CPU 0: Intel(R) Xeon(R) CPU E5-2666 v3 @ 2.90GHz (5800.2 bogomips)\n\n   CPU 7: Intel(R) Xeon(R) CPU E5-2666 v3 @ 2.90GHz (5800.2 bogomips)           \n          Hyper-Threading, x86-64, MMX, Physical Address Ext, SYSENTER/SYSEXIT, SYSCALL/SYSRET                                                                  \n   07:07:41 up 25 min,  2 users,  load average: 0.14, 0.06, 0.02; runlevel 2016-12-30                                                                           \n\n------------------------------------------------------------------------        \nBenchmark Run: Fri Dec 30 2016 07:07:41 - 07:35:48                              \n8 CPUs in system; running 1 parallel copy of tests                              \n\nDhrystone 2 using register variables       37937899.2 lps   (10.0 s, 7 samples) \nDouble-Precision Whetstone                     4028.9 MWIPS (9.9 s, 7 samples)  \nExecl Throughput                               4760.6 lps   (30.0 s, 2 samples) \nFile Copy 1024 bufsize 2000 maxblocks       1235666.5 KBps  (30.0 s, 2 samples) \nFile Copy 256 bufsize 500 maxblocks          324666.9 KBps  (30.0 s, 2 samples) \nFile Copy 4096 bufsize 8000 maxblocks       2811474.4 KBps  (30.0 s, 2 samples) \nPipe Throughput                             2522248.3 lps   (10.0 s, 7 samples) \n\nPipe-based Context Switching                  50076.1 lps   (10.0 s, 7 s[33/162]\nProcess Creation                              11259.3 lps   (30.0 s, 2 samples) \nShell Scripts (1 concurrent)                  13532.2 lpm   (60.0 s, 2 samples) \nShell Scripts (8 concurrent)                   5102.8 lpm   (60.0 s, 2 samples) \nSystem Call Overhead                        3961884.2 lps   (10.0 s, 7 samples) \n\nSystem Benchmarks Index Values               BASELINE       RESULT    INDEX     \nDhrystone 2 using register variables         116700.0   37937899.2   3250.9     \nDouble-Precision Whetstone                       55.0       4028.9    732.5     \nExecl Throughput                                 43.0       4760.6   1107.1     \nFile Copy 1024 bufsize 2000 maxblocks          3960.0    1235666.5   3120.4     \nFile Copy 256 bufsize 500 maxblocks            1655.0     324666.9   1961.7     \nFile Copy 4096 bufsize 8000 maxblocks          5800.0    2811474.4   4847.4     \nPipe Throughput                               12440.0    2522248.3   2027.5     \nPipe-based Context Switching                   4000.0      50076.1    125.2     \nProcess Creation                                126.0      11259.3    893.6     \nShell Scripts (1 concurrent)                     42.4      13532.2   3191.6     \nShell Scripts (8 concurrent)                      6.0       5102.8   8504.6     \nSystem Call Overhead                          15000.0    3961884.2   2641.3     \n                                                                   ========     \nSystem Benchmarks Index Score                                        1814.3\n\n------------------------------------------------------------------------       \nBenchmark Run: Fri Dec 30 2016 07:35:48 - 08:04:03                             \n8 CPUs in system; running 8 parallel copies of tests                           \n\nDhrystone 2 using register variables      181957395.9 lps   (10.0 s, 7 samples)\nDouble-Precision Whetstone                    28834.7 MWIPS (10.1 s, 7 samples)\nExecl Throughput                              24877.1 lps   (30.0 s, 2 samples)\nFile Copy 1024 bufsize 2000 maxblocks       1017540.2 KBps  (30.0 s, 2 samples)\nFile Copy 256 bufsize 500 maxblocks          262280.2 KBps  (30.0 s, 2 samples)\nFile Copy 4096 bufsize 8000 maxblocks       3001543.0 KBps  (30.0 s, 2 samples)\nPipe Throughput                            11182536.5 lps   (10.0 s, 7 samples)\nPipe-based Context Switching                1433581.8 lps   (10.0 s, 7 samples)\nProcess Creation                              51219.6 lps   (30.0 s, 2 samples)\nShell Scripts (1 concurrent)                  52181.9 lpm   (60.0 s, 2 samples)\nShell Scripts (8 concurrent)                   6904.3 lpm   (60.0 s, 2 samples)\nSystem Call Overhead                        9072987.3 lps   (10.0 s, 7 samples)\n\nSystem Benchmarks Index Values               BASELINE       RESULT    INDEX\nDhrystone 2 using register variables         116700.0  181957395.9  15591.9\nDouble-Precision Whetstone                       55.0      28834.7   5242.7\nExecl Throughput                                 43.0      24877.1   5785.4\nFile Copy 1024 bufsize 2000 maxblocks          3960.0    1017540.2   2569.5\nFile Copy 256 bufsize 500 maxblocks            1655.0     262280.2   1584.8\nFile Copy 4096 bufsize 8000 maxblocks          5800.0    3001543.0   5175.1\nPipe Throughput                               12440.0   11182536.5   8989.2\nPipe-based Context Switching                   4000.0    1433581.8   3584.0\nProcess Creation                                126.0      51219.6   4065.0\nShell Scripts (1 concurrent)                     42.4      52181.9  12307.1\nShell Scripts (8 concurrent)                      6.0       6904.3  11507.2\nSystem Call Overhead                          15000.0    9072987.3   6048.7\n                                                                   ========\nSystem Benchmarks Index Score                                        5675.9\n\n\n\u307e\u3068\u3081\narm\u306e\u30e1\u30cb\u30fc\u30b3\u30a2\u3092\u8a66\u7528\u3057\u3066\u3001EC2\u306e\u30de\u30b7\u30f3\u3068\u6bd4\u8f03\u3057\u3066\u307f\u305f\u3002\nxeon\u306e\u30de\u30b7\u30f3\u3088\u308a\u306f\u5c11\u3057\u9045\u3044\u3088\u3046\u306a\u6c17\u304c\u3057\u305f\u304c\u3001\u305d\u308c\u3067\u3082\u30e1\u30cb\u30fc\u30b3\u30a2(96\u30b3\u30a2)\u306f\u9b45\u529b\u7684\u306a\u30ae\u30df\u30c3\u30af\u3060\u3002\n\u624b\u8efd\u306b\u30e1\u30cb\u30fc\u30b3\u30a2\u3092\u8a66\u305b\u308b\u74b0\u5883\u304c\u6771\u4eac\u306b\u3042\u308b\u306e\u306f\u826f\u3044\u3068\u611f\u3058\u305f\u3002\n## \u306f\u3058\u3081\u306b\nCPU\u306e\u30e1\u30cb\u30fc\u30b3\u30a2\u5316\u304c\u6b62\u307e\u3089\u306a\u3044\u3002CPU\u30af\u30ed\u30c3\u30af\u3092\u4e0a\u3052\u3066\u306e\u6027\u80fd\u5411\u4e0a\u304c\u96e3\u3057\u304f\u306a\u3063\u305f\u306e\u3067\u3001\u5404CPU\u30e1\u30fc\u30ab\u306f\u3001\u30e1\u30cb\u30fc\u30b3\u30a2\u5316\u3067\u6027\u80fd\u3092\u4e0a\u3052\u308b\u65b9\u5411\u3092\u6a21\u7d22\u3057\u3066\u3044\u308b\u3002\n\nARM\u306f\u305d\u306e\u3088\u3046\u306a\u7af6\u4e89\u306e\u30d5\u30ed\u30f3\u30c8\u30e9\u30f3\u30ca\u30fc\u3092\u52d9\u3081\u3066\u3044\u308b\u3002\n\u4f8b\u3048\u3070\u300164core\u306eserver\u7528ARM\u30d7\u30ed\u30bb\u30c3\u30b5\u30fc\u306a\u3069\u304c\u51fa\u3066\u304d\u3066\u3044\u308b\u3002\n\nhttps://www.nextplatform.com/2016/09/01/details-emerge-chinas-64-core-arm-chip/\n\n\u305d\u306e\u3088\u3046\u306a\u4e2d\u3067\u3001Packet\u3068\u3044\u3046\u4f1a\u793e\u304c\u3001\u6771\u4eac\u30ea\u30fc\u30b8\u30e7\u30f3\u3067\u3001ARM 96\u30b3\u30a2\u306e\u30af\u30e9\u30a6\u30c9\u30b5\u30fc\u30d3\u30b9\u3092\u59cb\u3081\u305f\u306e\u3067\u3001\u5b9f\u969b\u30e1\u30cb\u30fc\u30b3\u30a2\u304c\u3069\u306e\u3088\u3046\u306a\u6027\u80fd\u304c\u51fa\u308b\u304b\u8a66\u3057\u3066\u307f\u305f\u3002\u4eca\u307e\u3067\u3082\u3001\u6771\u4eac\u30ea\u30fc\u30b8\u30e7\u30f3\u4ee5\u5916\u3067ARM core\u3092\u5229\u7528\u3057\u305f\u30af\u30e9\u30a6\u30c9\u30b5\u30fc\u30d3\u30b9\u306f\u3042\u3063\u305f\u304c\u3001\u30e8\u30fc\u30ed\u30c3\u30d1\u306a\u3069\u3067\u3001\u30ec\u30a4\u30c6\u30f3\u30b7\u304c\u5927\u304d\u304f\u3066\u3001\u4f7f\u3044\u306b\u304f\u304b\u3063\u305f\u3002\n\n## \u4f7f\u7528\u30de\u30b7\u30f3\n\n\u4eca\u56de\u4f7f\u7528\u3057\u305f\u306e\u306f\u3001Packet\u3068\u3044\u3046\u4f1a\u793e\u306eARM\u30b5\u30fc\u30d0\u30af\u30e9\u30a6\u30c9\u30b5\u30fc\u30d3\u30b9\u3002\u30d9\u30a2\u30e1\u30bf\u30eb\u3067\u300196\u30b3\u30a2\u306e\u30de\u30b7\u30f3\u3092\u4e00\u6642\u95930.5\u30c9\u30eb\u3067\u5229\u7528\u3067\u304d\u308b\u3002\n\nhttps://www.packet.net/bare-metal/\n\n\u30b5\u30fc\u30d0\u306e\u6027\u80fd\u306f\u3053\u3093\u306a\u611f\u3058\u3060\n\n![image](https://qiita-image-store.s3.amazonaws.com/0/26986/b10ac1e3-401c-426b-293a-64570634b70e.png)\n\nARMv8 96core 128GB RAM 340GB SSD 20Gbps\n\n\u3068\u3044\u3046\u6027\u80fd\u3060\u3002\n\n## \u30de\u30b7\u30f3\u3092\u30c7\u30d7\u30ed\u30a4\u3059\u308b\n\n\u30de\u30b7\u30f3\u3092\u30c7\u30d7\u30ed\u30a4\u3059\u308b\u3002server type\u306fType2A\u3092\u9078\u3076\u3002deploy\u3057\u3066\u66ab\u304f\u5f85\u3064\u3068\u3001\u4f7f\u3048\u308b\u3088\u3046\u306b\u306a\u308b\u3002root\u3067\u306e\u30ed\u30b0\u30a4\u30f3\u306b\u306fssh-key\u304c\u5fc5\u8981\u3067\u3001\u516c\u958b\u9375\u3092\u30bb\u30c3\u30c8\u3059\u308b\u3002\n\n![image](https://qiita-image-store.s3.amazonaws.com/0/26986/643ff251-667f-81d5-b6de-a30eee40e369.png)\n\n## FFMPEG\u3067\u6027\u80fd\u3092\u8a66\u3057\u3066\u307f\u308b\u3002\n\n\u30e1\u30cb\u30fc\u30b3\u30a2\u306e\u6027\u80fd\u3092\u6e2c\u308b\u306e\u306b\u3001\u91cd\u3081\u306e\u51e6\u7406\u304c\u826f\u3044\u3060\u308d\u3046\u3068\u601d\u3063\u3066\u3001ffmpeg\u3067\u6027\u80fd\u3092\u6e2c\u3063\u3066\u307f\u308b\u3002\n\n![image.png](https://qiita-image-store.s3.amazonaws.com/0/26986/cb820fcb-e63b-df47-4fae-c5b5d0b8a53b.png)\n\n96\u30b3\u30a2\u3042\u308b\u306e\u3067\u3001threads\u309296\u306b\u3057\u3066\u307f\u305f\u3002\n\n```shell-session\nffmpeg -i input.wmv -threads 96 -movflags faststart -vcodec libx264 -strict -2  output.mp4\n```\n\n\u3057\u304b\u3057\u3001\u3042\u307e\u308a\u52b9\u7387\u7684\u306b\u51e6\u7406\u3057\u3066\u304f\u308c\u3066\u3044\u306a\u3044\u3088\u3046\u3060\u3002fps\u306f81\u5f8c\u534a\u300229\u30d5\u30ec\u30fc\u30e0\u304c\u4e00\u79d2\u306a\u306e\u3067\u3001\u5927\u4f533\u500d\u901f\u7a0b\u5ea6\u306e\u901f\u5ea6\u3060\u3002\n\n## UnixBench\u3092\u52d5\u304b\u3057\u3066\u307f\u308b\n\n\u3056\u3063\u304f\u308a\u6027\u80fd\u3092\u898b\u308b\u305f\u3081\u3001UnixBench\u3092\u52d5\u304b\u3057\u3066\u307f\u308b\u3002\nUnixBench\u306b\u95a2\u3057\u3066\u306f\u3053\u3061\u3089\u304c\u8a73\u3057\u3044\u3002\n\nhttp://qiita.com/smile-0yen/items/991ad53b8411364d9729\n\n```\n   BYTE UNIX Benchmarks (Version 5.1.3)\n\n   System: test-armcpu.local.lan: GNU/Linux\n   OS: GNU/Linux -- 4.4.0-38-generic -- #57-Ubuntu SMP Wed Sep 7 10:19:14 UTC 2016\n   Machine: aarch64 (aarch64)\n   Language: en_US.utf8 (charmap=\"UTF-8\", collate=\"UTF-8\")\n   05:03:55 up 18:53,  1 user,  load average: 0.29, 0.08, 0.02; runlevel 2016-12-29\n\n------------------------------------------------------------------------\nBenchmark Run: Fri Dec 30 2016 05:03:55 - 05:32:01\n96 CPUs in system; running 1 parallel copy of tests\n\nDhrystone 2 using register variables        8682902.1 lps   (10.0 s, 7 samples)\nDouble-Precision Whetstone                     1781.5 MWIPS (10.1 s, 7 samples)\nExecl Throughput                               1332.9 lps   (29.9 s, 2 samples)\nFile Copy 1024 bufsize 2000 maxblocks        241588.1 KBps  (30.0 s, 2 samples)\nFile Copy 256 bufsize 500 maxblocks           64547.6 KBps  (30.0 s, 2 samples)\nFile Copy 4096 bufsize 8000 maxblocks        624856.5 KBps  (30.0 s, 2 samples)\nPipe Throughput                              465766.8 lps   (10.0 s, 7 samples)\nPipe-based Context Switching                  89913.6 lps   (10.0 s, 7 samples)\nProcess Creation                               2217.6 lps   (30.0 s, 2 samples)\nShell Scripts (1 concurrent)                   3348.3 lpm   (60.0 s, 2 samples)\nShell Scripts (8 concurrent)                   1426.2 lpm   (60.0 s, 2 samples)\nSystem Call Overhead                        1042283.3 lps   (10.0 s, 7 samples)\n\nSystem Benchmarks Index Values               BASELINE       RESULT    INDEX\nDhrystone 2 using register variables         116700.0    8682902.1    744.0\nDouble-Precision Whetstone                       55.0       1781.5    323.9\nExecl Throughput                                 43.0       1332.9    310.0\nFile Copy 1024 bufsize 2000 maxblocks          3960.0     241588.1    610.1\nFile Copy 256 bufsize 500 maxblocks            1655.0      64547.6    390.0\nFile Copy 4096 bufsize 8000 maxblocks          5800.0     624856.5   1077.3\nPipe Throughput                               12440.0     465766.8    374.4\nPipe-based Context Switching                   4000.0      89913.6    224.8\nProcess Creation                                126.0       2217.6    176.0\nShell Scripts (1 concurrent)                     42.4       3348.3    789.7\nShell Scripts (8 concurrent)                      6.0       1426.2   2377.0\nSystem Call Overhead                          15000.0    1042283.3    694.9\n                                                                   ========\nSystem Benchmarks Index Score                                         517.6\n\n------------------------------------------------------------------------\nBenchmark Run: Fri Dec 30 2016 05:32:01 - 06:03:57\n96 CPUs in system; running 96 parallel copies of tests\n\nDhrystone 2 using register variables      827115140.6 lps   (10.0 s, 7 samples)\nDouble-Precision Whetstone                   170085.3 MWIPS (10.2 s, 7 samples)\nExecl Throughput                               9013.4 lps   (29.7 s, 2 samples)\nFile Copy 1024 bufsize 2000 maxblocks        394697.2 KBps  (30.0 s, 2 samples)\nFile Copy 256 bufsize 500 maxblocks           99702.0 KBps  (30.1 s, 2 samples)\nFile Copy 4096 bufsize 8000 maxblocks       1377211.3 KBps  (30.0 s, 2 samples)\nPipe Throughput                            41446654.1 lps   (10.0 s, 7 samples)\nPipe-based Context Switching                1015846.3 lps   (10.0 s, 7 samples)\nProcess Creation                              13796.1 lps   (30.0 s, 2 samples)\nShell Scripts (1 concurrent)                  30894.5 lpm   (60.1 s, 2 samples)\nShell Scripts (8 concurrent)                   4049.4 lpm   (60.5 s, 2 samples)\nSystem Call Overhead                         822014.2 lps   (10.1 s, 7 samples)\n\nSystem Benchmarks Index Values               BASELINE       RESULT    INDEX\nDhrystone 2 using register variables         116700.0  827115140.6  70875.3\nDouble-Precision Whetstone                       55.0     170085.3  30924.6\nExecl Throughput                                 43.0       9013.4   2096.1\nFile Copy 1024 bufsize 2000 maxblocks          3960.0     394697.2    996.7\nFile Copy 256 bufsize 500 maxblocks            1655.0      99702.0    602.4\nFile Copy 4096 bufsize 8000 maxblocks          5800.0    1377211.3   2374.5\nPipe Throughput                               12440.0   41446654.1  33317.2\nPipe-based Context Switching                   4000.0    1015846.3   2539.6\nProcess Creation                                126.0      13796.1   1094.9\nShell Scripts (1 concurrent)                     42.4      30894.5   7286.4\nShell Scripts (8 concurrent)                      6.0       4049.4   6749.1\nSystem Call Overhead                          15000.0     822014.2    548.0\n                                                                   ========\nSystem Benchmarks Index Score                                        3991.5\n```\n\n# EC2\u3068\u6bd4\u8f03\u3057\u3066\u307f\u308b\u3002\n\narm\u30b5\u30fc\u30d0\u306e\u5b9f\u529b\u3092\u56f3\u308b\u305f\u3081\u306bEC2\u306e\u5404\u30de\u30b7\u30f3\u3068\u6bd4\u8f03\u3057\u305f\u3002\nEC2\u306farm\u30b5\u30fc\u30d0\u304c\u306a\u3044\u306e\u3067\u3001\u30b3\u30a2\u6570\u306e\u591a\u3044xeon\u30b5\u30fc\u30d0\u3084\u3001\u4fa1\u683c\u5e2f\u306e\u8fd1\u3044\u30b5\u30fc\u30d0\u3068\u6bd4\u8f03\u3057\u3066\u307f\u308b\u3002\n\n## 64core xeon(x86_64)\u3068\u6bd4\u8f03\u3057\u305f\u3002\n\nEC2\u306e\u30de\u30b7\u30f3\u3068\u6bd4\u8f03\u3057\u305f\u3002\n\n\u6bd4\u8f03\u30de\u30b7\u30f3\u306f\u3001\nm4.16xlarge\n\u30b9\u30da\u30c3\u30af\u306f\n\n|\u30de\u30b7\u30f3\u540d| cpu core|ECU| memory(GBi)|HDD| \u4fa1\u683c|\n|:---|:----|:----|:----|:---|:----|\n|m4.16xlarge|64|188|256 |8GB/SDD|$4.45 /1 \u6642\u9593|\n\n\u3068\u306a\u308b\u3002ec2\u3067\u306f\u3001\u6700\u3082CPU\u304c\u591a\u3044\u30de\u30b7\u30f3\u3092\u9078\u3093\u3060\u3002\n\n### ffmpeg\u3067\u6bd4\u8f03\u3059\u308b\n\n\u5927\u4f5310\u500d\u901f\u7a0b\u5ea6\u3067\u3001\u30a8\u30f3\u30b3\u30fc\u30c9\u3057\u3066\u3044\u308b\u3002\nffmpeg\u306fCPU\u304c\u30dc\u30c8\u30eb\u30cd\u30c3\u30af\u306b\u306a\u3063\u3066\u3044\u308b\u308f\u3051\u3067\u306f\u306a\u3055\u305d\u3046\u3060\u3002\n\u5c11\u306a\u304f\u3068\u3082\u3001\u30de\u30eb\u30c1\u30b3\u30a2\u3092\u5168\u3066\u4f7f\u3044\u5207\u308b\u3088\u3046\u306a\u3053\u3068\u306f\u306a\u304b\u3063\u305f\u3002\n\n```\nspframe=174885 fps=308 q=29.0 size=  590515kB time=01:37:14.57 bitrate= 829.1kbits/s dup=418 drop=0 speed=10.3x\n```\n\n### unix bench\u3067\u6e2c\u3063\u305f\n\n```\n=======================================================================\n   BYTE UNIX Benchmarks (Version 5.1.3)\n\n   System: ip-10-0-0-100: GNU/Linux\n   OS: GNU/Linux -- 4.4.0-53-generic -- #74-Ubuntu SMP Fri Dec 2 15:59:10 UTC 2016\n   Machine: x86_64 (x86_64)\n   Language: en_US.utf8 (charmap=\"UTF-8\", collate=\"UTF-8\")\n   CPU 0: Intel(R) Xeon(R) CPU E5-2686 v4 @ 2.30GHz (4600.1 bogomips)\n          Hyper-Threading, x86-64, MMX, Physical Address Ext, SYSENTER/SYSEXIT, SYSCALL/SYSRET\n   CPU 1: Intel(R) Xeon(R) CPU E5-2686 v4 @ 2.30GHz (4600.1 bogomips)\n          Hyper-Threading, x86-64, MMX, Physical Address Ext, SYSENTER/SYSEXIT, SYSCALL/SYSRET\n   CPU 2: Intel(R) Xeon(R) CPU E5-2686 v4 @ 2.30GHz (4600.1 bogomips)\n          Hyper-Threading, x86-64, MMX, Physical Address Ext, SYSENTER/SYSEXIT, SYSCALL/SYSRET\n   CPU 3: Intel(R) Xeon(R) CPU E5-2686 v4 @ 2.30GHz (4600.1 bogomips)\n          Hyper-Threading, x86-64, MMX, Physical Address Ext, SYSENTER/SYSEXIT, SYSCALL/SYSRET\n   CPU 4: Intel(R) Xeon(R) CPU E5-2686 v4 @ 2.30GHz (4600.1 bogomips)\n          Hyper-Threading, x86-64, MMX, Physical Address Ext, SYSENTER/SYSEXIT, SYSCALL/SYSRET\n   CPU 5: Intel(R) Xeon(R) CPU E5-2686 v4 @ 2.30GHz (4600.1 bogomips)\n          Hyper-Threading, x86-64, MMX, Physical Address Ext, SYSENTER/SYSEXIT, SYSCALL/SYSRET\n   CPU 6: Intel(R) Xeon(R) CPU E5-2686 v4 @ 2.30GHz (4600.1 bogomips)\n          Hyper-Threading, x86-64, MMX, Physical Address Ext, SYSENTER/SYSEXIT, SYSCALL/SYSRET\n   CPU 7: Intel(R) Xeon(R) CPU E5-2686 v4 @ 2.30GHz (4600.1 bogomips)\n          Hyper-Threading, x86-64, MMX, Physical Address Ext, SYSENTER/SYSEXIT, SYSCALL/SYSRET\n   CPU 8: Intel(R) Xeon(R) CPU E5-2686 v4 @ 2.30GHz (4600.1 bogomips)\n          Hyper-Threading, x86-64, MMX, Physical Address Ext, SYSENTER/SYSEXIT, SYSCALL/SYSRET\n   CPU 9: Intel(R) Xeon(R) CPU E5-2686 v4 @ 2.30GHz (4600.1 bogomips)\n          Hyper-Threading, x86-64, MMX, Physical Address Ext, SYSENTER/SYSEXIT, SYSCALL/SYSRET\n   CPU 10: Intel(R) Xeon(R) CPU E5-2686 v4 @ 2.30GHz (4600.1 bogomips)\n          Hyper-Threading, x86-64, MMX, Physical Address Ext, SYSENTER/SYSEXIT, SYSCALL/SYSRET\n   CPU 11: Intel(R) Xeon(R) CPU E5-2686 v4 @ 2.30GHz (4600.1 bogomips)\n          Hyper-Threading, x86-64, MMX, Physical Address Ext, SYSENTER/SYSEXIT, SYSCALL/SYSRET\n..\u4e2d\u7565\n\n------------------------------------------------------------------------\nBenchmark Run: Fri Dec 30 2016 06:47:26 - 07:15:32\n64 CPUs in system; running 1 parallel copy of tests\n\nDhrystone 2 using register variables       31339027.4 lps   (10.0 s, 7 samples)\nDouble-Precision Whetstone                     3854.6 MWIPS (9.8 s, 7 samples)\nExecl Throughput                               2149.6 lps   (29.7 s, 2 samples)\nFile Copy 1024 bufsize 2000 maxblocks       1070566.1 KBps  (30.0 s, 2 samples)\nFile Copy 256 bufsize 500 maxblocks          285762.6 KBps  (30.0 s, 2 samples)\nFile Copy 4096 bufsize 8000 maxblocks       3329653.8 KBps  (30.0 s, 2 samples)\nPipe Throughput                             2092745.4 lps   (10.0 s, 7 samples)\nPipe-based Context Switching                  55210.1 lps   (10.0 s, 7 samples)\nProcess Creation                               3169.1 lps   (30.0 s, 2 samples)\nShell Scripts (1 concurrent)                   8362.3 lpm   (60.0 s, 2 samples)\nShell Scripts (8 concurrent)                   5731.3 lpm   (60.0 s, 2 samples)\nSystem Call Overhead                        3320152.8 lps   (10.0 s, 7 samples)\n\nSystem Benchmarks Index Values               BASELINE       RESULT    INDEX\nDhrystone 2 using register variables         116700.0   31339027.4   2685.4\nDouble-Precision Whetstone                       55.0       3854.6    700.8\nExecl Throughput                                 43.0       2149.6    499.9\nFile Copy 1024 bufsize 2000 maxblocks          3960.0    1070566.1   2703.4\nFile Copy 256 bufsize 500 maxblocks            1655.0     285762.6   1726.7\nFile Copy 4096 bufsize 8000 maxblocks          5800.0    3329653.8   5740.8\nPipe Throughput                               12440.0    2092745.4   1682.3\nPipe-based Context Switching                   4000.0      55210.1    138.0\nProcess Creation                                126.0       3169.1    251.5\nShell Scripts (1 concurrent)                     42.4       8362.3   1972.2\nShell Scripts (8 concurrent)                      6.0       5731.3   9552.2\nSystem Call Overhead                          15000.0    3320152.8   2213.4\n                                                                   ========\nSystem Benchmarks Index Score                                        1409.3\n\n------------------------------------------------------------------------\nBenchmark Run: Fri Dec 30 2016 07:15:32 - 07:44:01\n64 CPUs in system; running 64 parallel copies of tests\n\nDhrystone 2 using register variables     1221091536.5 lps   (10.0 s, 7 samples)\nDouble-Precision Whetstone                   216598.1 MWIPS (10.0 s, 7 samples)\nExecl Throughput                              35869.1 lps   (29.9 s, 2 samples)\nFile Copy 1024 bufsize 2000 maxblocks        573922.7 KBps  (30.0 s, 2 samples)\nFile Copy 256 bufsize 500 maxblocks          136692.2 KBps  (30.0 s, 2 samples)\nFile Copy 4096 bufsize 8000 maxblocks       1854326.6 KBps  (30.0 s, 2 samples)\nPipe Throughput                            75118109.6 lps   (10.0 s, 7 samples)\nPipe-based Context Switching                5722744.1 lps   (10.0 s, 7 samples)\nProcess Creation                              45984.7 lps   (30.0 s, 2 samples)\nShell Scripts (1 concurrent)                 143643.6 lpm   (60.0 s, 2 samples)\nShell Scripts (8 concurrent)                  19149.4 lpm   (60.1 s, 2 samples)\nSystem Call Overhead                        3478749.7 lps   (10.0 s, 7 samples)\n\nSystem Benchmarks Index Values               BASELINE       RESULT    INDEX\nDhrystone 2 using register variables         116700.0 1221091536.5 104635.1\nDouble-Precision Whetstone                       55.0     216598.1  39381.5\nExecl Throughput                                 43.0      35869.1   8341.7\nFile Copy 1024 bufsize 2000 maxblocks          3960.0     573922.7   1449.3\nFile Copy 256 bufsize 500 maxblocks            1655.0     136692.2    825.9\nFile Copy 4096 bufsize 8000 maxblocks          5800.0    1854326.6   3197.1\nPipe Throughput                               12440.0   75118109.6  60384.3\nPipe-based Context Switching                   4000.0    5722744.1  14306.9\nProcess Creation                                126.0      45984.7   3649.6\nShell Scripts (1 concurrent)                     42.4     143643.6  33878.2\nShell Scripts (8 concurrent)                      6.0      19149.4  31915.6\nSystem Call Overhead                          15000.0    3478749.7   2319.2\n                                                                   ========\nSystem Benchmarks Index Score                                       10032.8\n```\n\n\n\n## \u540c\u3058\u4fa1\u683c\u5e2f\u306eEC2\u306e\u30de\u30b7\u30f3\u3068\u6bd4\u8f03\u3057\u305f\u3002\n\n\u6bd4\u8f03\u30de\u30b7\u30f3\u306f\u3001\nc4.2xlarge\n\u30b9\u30da\u30c3\u30af\u306f\n\n|\u30de\u30b7\u30f3\u540d| cpu core|ECU| memory(GBi)|HDD| \u4fa1\u683c|\n|:---|:----|:----|:----|:---|:----|\n|c4.2xlarge|8|31|15|20GB/SDD|$0.504 /1 \u6642\u9593|\n\n\u3068\u306a\u308b\u3002ec2\u3067\u306f\u3001packet\u306etype2a\u3068\u540c\u3058\u4fa1\u683c\u5e2f\u3067\u6bd4\u8f03\u3057\u3066\u307f\u305f\u3002\n\n### ffmpeg\u3067\u6bd4\u8f03\u3057\u305f\n\n\u5927\u4f538\u500d\u901f\u304f\u3089\u3044\u306e\u901f\u5ea6\u304c\u51fa\u3066\u3044\u308b\u3002\n\u4e0a\u306b\u66f8\u3044\u305f\u3088\u3046\u306bFFMPEG\u306fCPU\u304c\u30dc\u30c8\u30eb\u30cd\u30c3\u30af\u306b\u306f\u306a\u3063\u3066\u3044\u306a\u3044\u3002\n\n```\nframe=17502 fps=251 q=29.0 size=   49055kB time=00:09:43.47 bitrate= 688.7kbits/s dup=7 drop=0 speed=8.37x\n```\n\n### unixbench\u3067\u6bd4\u8f03\u3057\u305f\u3002\n\n```\n========================================================================        \n   BYTE UNIX Benchmarks (Version 5.1.3)                                         \n                                                                                \n   System: ip-10-0-0-199: GNU/Linux                                             \n   OS: GNU/Linux -- 4.4.0-53-generic -- #74-Ubuntu SMP Fri Dec 2 15:59:10 UTC 2016                                                                              \n   Machine: x86_64 (x86_64)                                                     \n   Language: en_US.utf8 (charmap=\"UTF-8\", collate=\"UTF-8\")                      \n   CPU 0: Intel(R) Xeon(R) CPU E5-2666 v3 @ 2.90GHz (5800.2 bogomips)\n\n   CPU 7: Intel(R) Xeon(R) CPU E5-2666 v3 @ 2.90GHz (5800.2 bogomips)           \n          Hyper-Threading, x86-64, MMX, Physical Address Ext, SYSENTER/SYSEXIT, SYSCALL/SYSRET                                                                  \n   07:07:41 up 25 min,  2 users,  load average: 0.14, 0.06, 0.02; runlevel 2016-12-30                                                                           \n                                                                                \n------------------------------------------------------------------------        \nBenchmark Run: Fri Dec 30 2016 07:07:41 - 07:35:48                              \n8 CPUs in system; running 1 parallel copy of tests                              \n                                                                                \nDhrystone 2 using register variables       37937899.2 lps   (10.0 s, 7 samples) \nDouble-Precision Whetstone                     4028.9 MWIPS (9.9 s, 7 samples)  \nExecl Throughput                               4760.6 lps   (30.0 s, 2 samples) \nFile Copy 1024 bufsize 2000 maxblocks       1235666.5 KBps  (30.0 s, 2 samples) \nFile Copy 256 bufsize 500 maxblocks          324666.9 KBps  (30.0 s, 2 samples) \nFile Copy 4096 bufsize 8000 maxblocks       2811474.4 KBps  (30.0 s, 2 samples) \nPipe Throughput                             2522248.3 lps   (10.0 s, 7 samples) \n\nPipe-based Context Switching                  50076.1 lps   (10.0 s, 7 s[33/162]\nProcess Creation                              11259.3 lps   (30.0 s, 2 samples) \nShell Scripts (1 concurrent)                  13532.2 lpm   (60.0 s, 2 samples) \nShell Scripts (8 concurrent)                   5102.8 lpm   (60.0 s, 2 samples) \nSystem Call Overhead                        3961884.2 lps   (10.0 s, 7 samples) \n                                                                                \nSystem Benchmarks Index Values               BASELINE       RESULT    INDEX     \nDhrystone 2 using register variables         116700.0   37937899.2   3250.9     \nDouble-Precision Whetstone                       55.0       4028.9    732.5     \nExecl Throughput                                 43.0       4760.6   1107.1     \nFile Copy 1024 bufsize 2000 maxblocks          3960.0    1235666.5   3120.4     \nFile Copy 256 bufsize 500 maxblocks            1655.0     324666.9   1961.7     \nFile Copy 4096 bufsize 8000 maxblocks          5800.0    2811474.4   4847.4     \nPipe Throughput                               12440.0    2522248.3   2027.5     \nPipe-based Context Switching                   4000.0      50076.1    125.2     \nProcess Creation                                126.0      11259.3    893.6     \nShell Scripts (1 concurrent)                     42.4      13532.2   3191.6     \nShell Scripts (8 concurrent)                      6.0       5102.8   8504.6     \nSystem Call Overhead                          15000.0    3961884.2   2641.3     \n                                                                   ========     \nSystem Benchmarks Index Score                                        1814.3\n\n------------------------------------------------------------------------       \nBenchmark Run: Fri Dec 30 2016 07:35:48 - 08:04:03                             \n8 CPUs in system; running 8 parallel copies of tests                           \n                                                                               \nDhrystone 2 using register variables      181957395.9 lps   (10.0 s, 7 samples)\nDouble-Precision Whetstone                    28834.7 MWIPS (10.1 s, 7 samples)\nExecl Throughput                              24877.1 lps   (30.0 s, 2 samples)\nFile Copy 1024 bufsize 2000 maxblocks       1017540.2 KBps  (30.0 s, 2 samples)\nFile Copy 256 bufsize 500 maxblocks          262280.2 KBps  (30.0 s, 2 samples)\nFile Copy 4096 bufsize 8000 maxblocks       3001543.0 KBps  (30.0 s, 2 samples)\nPipe Throughput                            11182536.5 lps   (10.0 s, 7 samples)\nPipe-based Context Switching                1433581.8 lps   (10.0 s, 7 samples)\nProcess Creation                              51219.6 lps   (30.0 s, 2 samples)\nShell Scripts (1 concurrent)                  52181.9 lpm   (60.0 s, 2 samples)\nShell Scripts (8 concurrent)                   6904.3 lpm   (60.0 s, 2 samples)\nSystem Call Overhead                        9072987.3 lps   (10.0 s, 7 samples)\n\nSystem Benchmarks Index Values               BASELINE       RESULT    INDEX\nDhrystone 2 using register variables         116700.0  181957395.9  15591.9\nDouble-Precision Whetstone                       55.0      28834.7   5242.7\nExecl Throughput                                 43.0      24877.1   5785.4\nFile Copy 1024 bufsize 2000 maxblocks          3960.0    1017540.2   2569.5\nFile Copy 256 bufsize 500 maxblocks            1655.0     262280.2   1584.8\nFile Copy 4096 bufsize 8000 maxblocks          5800.0    3001543.0   5175.1\nPipe Throughput                               12440.0   11182536.5   8989.2\nPipe-based Context Switching                   4000.0    1433581.8   3584.0\nProcess Creation                                126.0      51219.6   4065.0\nShell Scripts (1 concurrent)                     42.4      52181.9  12307.1\nShell Scripts (8 concurrent)                      6.0       6904.3  11507.2\nSystem Call Overhead                          15000.0    9072987.3   6048.7\n                                                                   ========\nSystem Benchmarks Index Score                                        5675.9\n```\n\n## \u307e\u3068\u3081\n\narm\u306e\u30e1\u30cb\u30fc\u30b3\u30a2\u3092\u8a66\u7528\u3057\u3066\u3001EC2\u306e\u30de\u30b7\u30f3\u3068\u6bd4\u8f03\u3057\u3066\u307f\u305f\u3002\n\nxeon\u306e\u30de\u30b7\u30f3\u3088\u308a\u306f\u5c11\u3057\u9045\u3044\u3088\u3046\u306a\u6c17\u304c\u3057\u305f\u304c\u3001\u305d\u308c\u3067\u3082\u30e1\u30cb\u30fc\u30b3\u30a2(96\u30b3\u30a2)\u306f\u9b45\u529b\u7684\u306a\u30ae\u30df\u30c3\u30af\u3060\u3002\n\n\u624b\u8efd\u306b\u30e1\u30cb\u30fc\u30b3\u30a2\u3092\u8a66\u305b\u308b\u74b0\u5883\u304c\u6771\u4eac\u306b\u3042\u308b\u306e\u306f\u826f\u3044\u3068\u611f\u3058\u305f\u3002\n", "tags": ["ARM", "\u30e1\u30cb\u30fc\u30b3\u30a2", "manycore"]}